<svg width="20" height="14" viewBox="0 0 20 14" fill="none" xmlns="http://www.w3.org/2000/svg">
<path d="M10 4.5C9.337 4.5 8.70111 4.76339 8.23227 5.23223C7.76343 5.70107 7.50004 6.33696 7.50004 7C7.50004 7.66304 7.76343 8.29893 8.23227 8.76777C8.70111 9.23661 9.337 9.5 10 9.5C10.6631 9.5 11.299 9.23661 11.7678 8.76777C12.2366 8.29893 12.5 7.66304 12.5 7C12.5 6.33696 12.2366 5.70107 11.7678 5.23223C11.299 4.76339 10.6631 4.5 10 4.5ZM10 11.1667C8.89497 11.1667 7.83516 10.7277 7.05376 9.94628C6.27236 9.16488 5.83337 8.10507 5.83337 7C5.83337 5.89493 6.27236 4.83512 7.05376 4.05372C7.83516 3.27232 8.89497 2.83333 10 2.83333C11.1051 2.83333 12.1649 3.27232 12.9463 4.05372C13.7277 4.83512 14.1667 5.89493 14.1667 7C14.1667 8.10507 13.7277 9.16488 12.9463 9.94628C12.1649 10.7277 11.1051 11.1667 10 11.1667ZM10 0.75C5.83337 0.75 2.27504 3.34167 0.833374 7C2.27504 10.6583 5.83337 13.25 10 13.25C14.1667 13.25 17.725 10.6583 19.1667 7C17.725 3.34167 14.1667 0.75 10 0.75Z" fill="#696969"/>
</svg>
