<svg width="21" height="21" viewBox="0 0 21 21" fill="none" xmlns="http://www.w3.org/2000/svg">
<ellipse cx="10.1369" cy="10" rx="10.0525" ry="10" fill="#EFC908"/>
<path d="M10.9107 8.376V15H9.42271V8.376H10.9107ZM9.31071 5.992C9.31071 5.75733 9.40138 5.56 9.58271 5.4C9.76404 5.24 9.97204 5.16 10.2067 5.16C10.4414 5.16 10.644 5.24 10.8147 5.4C10.996 5.56 11.0867 5.75733 11.0867 5.992C11.0867 6.22667 10.996 6.424 10.8147 6.584C10.644 6.744 10.4414 6.824 10.2067 6.824C9.97204 6.824 9.76404 6.744 9.58271 6.584C9.40138 6.424 9.31071 6.22667 9.31071 5.992Z" fill="white"/>
</svg>
